<svg width="279" height="49" viewBox="0 0 279 49" fill="none" xmlns="http://www.w3.org/2000/svg">
<rect x="2" y="2" width="44" height="44.0938" stroke="#0465B4" stroke-width="4"/>
<path d="M14.0339 10.1892L23.5932 5.29834L33.9661 9.98544L24 15.0801L14.0339 10.1892Z" fill="#79F297"/>
<path d="M13.8306 21.3975L14.034 10.1892L24.0001 15.0801V26.4922L13.8306 21.3975Z" fill="#0487D9"/>
<path d="M24 37.4969V26.4924L33.9661 31.3833V42.5916L24 37.4969Z" fill="#0487D9"/>
<path d="M33.9661 21.3975L33.7627 10.1892L23.7966 15.0801L24 26.4922L33.9661 21.3975Z" fill="#F2E749"/>
<path d="M24 37.4969V26.4924L14.0339 31.3833V42.5916L24 37.4969Z" fill="#F2E749"/>
<path d="M76.6875 29.4355H81.2344C81.1719 31.1439 80.8281 32.5866 80.2031 33.7637C79.5781 34.9303 78.6875 35.8158 77.5312 36.4199C76.3854 37.0241 75 37.3262 73.375 37.3262C72.1146 37.3262 70.9948 37.1178 70.0156 36.7012C69.0365 36.2741 68.2031 35.6491 67.5156 34.8262C66.8281 34.0033 66.3073 32.9876 65.9531 31.7793C65.6094 30.5605 65.4375 29.1595 65.4375 27.5762V23.7168C65.4375 22.1335 65.6198 20.7324 65.9844 19.5137C66.3594 18.2949 66.8906 17.2741 67.5781 16.4512C68.276 15.6178 69.1146 14.9928 70.0938 14.5762C71.0833 14.1491 72.1979 13.9355 73.4375 13.9355C75.0938 13.9355 76.4792 14.248 77.5938 14.873C78.7083 15.498 79.5677 16.4095 80.1719 17.6074C80.7865 18.7949 81.1562 20.248 81.2812 21.9668H76.7031C76.6823 20.8835 76.5625 20.0345 76.3438 19.4199C76.1354 18.7949 75.8021 18.3574 75.3438 18.1074C74.8854 17.847 74.25 17.7168 73.4375 17.7168C72.8333 17.7168 72.3125 17.8262 71.875 18.0449C71.4375 18.2533 71.0781 18.5918 70.7969 19.0605C70.5156 19.5293 70.3073 20.1439 70.1719 20.9043C70.0469 21.6647 69.9844 22.5918 69.9844 23.6855V27.5762C69.9844 28.6491 70.0417 29.5658 70.1562 30.3262C70.2708 31.0762 70.4531 31.6908 70.7031 32.1699C70.9531 32.6491 71.2917 32.998 71.7188 33.2168C72.1562 33.4355 72.7083 33.5449 73.375 33.5449C74.1458 33.5449 74.7656 33.4303 75.2344 33.2012C75.7135 32.972 76.0677 32.5605 76.2969 31.9668C76.526 31.373 76.6562 30.5293 76.6875 29.4355ZM92.0469 32.9512V20.1074H96.4375V37.0137H92.3125L92.0469 32.9512ZM92.5469 29.4668L93.7656 29.4355C93.7656 30.571 93.6562 31.623 93.4375 32.5918C93.2188 33.5501 92.8906 34.3835 92.4531 35.0918C92.026 35.8001 91.4792 36.3522 90.8125 36.748C90.1562 37.1335 89.3802 37.3262 88.4844 37.3262C87.7969 37.3262 87.1615 37.2116 86.5781 36.9824C86.0052 36.7428 85.5104 36.373 85.0938 35.873C84.6771 35.3626 84.349 34.7116 84.1094 33.9199C83.8802 33.1178 83.7656 32.1595 83.7656 31.0449V20.1074H88.1562V31.0762C88.1562 31.5345 88.1927 31.9303 88.2656 32.2637C88.349 32.5866 88.4635 32.8522 88.6094 33.0605C88.7656 33.2689 88.9427 33.4199 89.1406 33.5137C89.3385 33.597 89.5625 33.6387 89.8125 33.6387C90.5 33.6387 91.0417 33.4616 91.4375 33.1074C91.8438 32.7428 92.1302 32.248 92.2969 31.623C92.4635 30.9876 92.5469 30.2689 92.5469 29.4668ZM99.6406 13.0137H104V33.0918L103.688 37.0137H99.6406V13.0137ZM112.781 27.998V29.1074C112.781 30.4824 112.672 31.6803 112.453 32.7012C112.245 33.722 111.917 34.5762 111.469 35.2637C111.031 35.9512 110.469 36.4668 109.781 36.8105C109.094 37.1543 108.281 37.3262 107.344 37.3262C106.5 37.3262 105.776 37.1283 105.172 36.7324C104.568 36.3262 104.057 35.7689 103.641 35.0605C103.234 34.3418 102.901 33.5033 102.641 32.5449C102.391 31.5762 102.208 30.5189 102.094 29.373V27.7324C102.198 26.6074 102.375 25.5605 102.625 24.5918C102.885 23.623 103.219 22.7845 103.625 22.0762C104.031 21.3574 104.536 20.8001 105.141 20.4043C105.755 19.998 106.479 19.7949 107.312 19.7949C108.271 19.7949 109.094 19.972 109.781 20.3262C110.469 20.6699 111.031 21.1855 111.469 21.873C111.917 22.5605 112.245 23.4199 112.453 24.4512C112.672 25.472 112.781 26.6543 112.781 27.998ZM108.422 29.1074V27.998C108.422 27.2168 108.391 26.5449 108.328 25.9824C108.266 25.4199 108.151 24.9512 107.984 24.5762C107.818 24.2012 107.578 23.9199 107.266 23.7324C106.964 23.5449 106.562 23.4512 106.062 23.4512C105.615 23.4512 105.24 23.5397 104.938 23.7168C104.635 23.8835 104.375 24.1335 104.156 24.4668C103.948 24.7897 103.797 25.1751 103.703 25.623C103.609 26.0605 103.552 26.5449 103.531 27.0762V30.0293C103.542 30.748 103.63 31.3835 103.797 31.9355C103.964 32.4876 104.229 32.9147 104.594 33.2168C104.969 33.5189 105.469 33.6699 106.094 33.6699C106.583 33.6699 106.979 33.5866 107.281 33.4199C107.583 33.2533 107.818 32.9876 107.984 32.623C108.161 32.2585 108.276 31.7897 108.328 31.2168C108.391 30.6335 108.422 29.9303 108.422 29.1074ZM114.969 29.1387V27.998C114.969 26.6751 115.125 25.5033 115.438 24.4824C115.76 23.4616 116.219 22.6074 116.812 21.9199C117.406 21.222 118.12 20.696 118.953 20.3418C119.797 19.9772 120.74 19.7949 121.781 19.7949C122.833 19.7949 123.776 19.9772 124.609 20.3418C125.453 20.696 126.172 21.222 126.766 21.9199C127.37 22.6074 127.833 23.4616 128.156 24.4824C128.479 25.5033 128.641 26.6751 128.641 27.998V29.1387C128.641 30.4512 128.479 31.6178 128.156 32.6387C127.833 33.6595 127.37 34.5189 126.766 35.2168C126.172 35.9147 125.458 36.4408 124.625 36.7949C123.792 37.1491 122.854 37.3262 121.812 37.3262C120.771 37.3262 119.828 37.1491 118.984 36.7949C118.151 36.4408 117.432 35.9147 116.828 35.2168C116.224 34.5189 115.76 33.6595 115.438 32.6387C115.125 31.6178 114.969 30.4512 114.969 29.1387ZM119.344 27.998V29.1387C119.344 29.9199 119.396 30.597 119.5 31.1699C119.615 31.7428 119.776 32.2168 119.984 32.5918C120.203 32.9668 120.464 33.2428 120.766 33.4199C121.068 33.597 121.417 33.6855 121.812 33.6855C122.208 33.6855 122.562 33.597 122.875 33.4199C123.188 33.2428 123.443 32.9668 123.641 32.5918C123.849 32.2168 124 31.7428 124.094 31.1699C124.198 30.597 124.25 29.9199 124.25 29.1387V27.998C124.25 27.2376 124.193 26.571 124.078 25.998C123.964 25.4147 123.802 24.9408 123.594 24.5762C123.385 24.2012 123.125 23.9199 122.812 23.7324C122.51 23.5345 122.167 23.4355 121.781 23.4355C121.396 23.4355 121.052 23.5345 120.75 23.7324C120.458 23.9199 120.203 24.2012 119.984 24.5762C119.776 24.9408 119.615 25.4147 119.5 25.998C119.396 26.571 119.344 27.2376 119.344 27.998ZM138.906 32.4512C138.906 32.1595 138.807 31.8991 138.609 31.6699C138.411 31.4408 138.099 31.2064 137.672 30.9668C137.245 30.7168 136.677 30.4408 135.969 30.1387C135.198 29.8262 134.516 29.5033 133.922 29.1699C133.328 28.8366 132.823 28.4668 132.406 28.0605C132 27.6543 131.693 27.1908 131.484 26.6699C131.276 26.1491 131.172 25.5553 131.172 24.8887C131.172 24.1699 131.302 23.5085 131.562 22.9043C131.833 22.2897 132.219 21.7533 132.719 21.2949C133.219 20.8262 133.828 20.4616 134.547 20.2012C135.276 19.9303 136.094 19.7949 137 19.7949C138.271 19.7949 139.359 20.0189 140.266 20.4668C141.182 20.9043 141.885 21.5189 142.375 22.3105C142.865 23.1022 143.109 24.0241 143.109 25.0762H138.734C138.734 24.7012 138.677 24.3678 138.562 24.0762C138.448 23.7741 138.26 23.5397 138 23.373C137.75 23.2064 137.411 23.123 136.984 23.123C136.672 23.123 136.391 23.1908 136.141 23.3262C135.901 23.4616 135.708 23.6439 135.562 23.873C135.427 24.0918 135.359 24.3522 135.359 24.6543C135.359 24.8835 135.406 25.0866 135.5 25.2637C135.604 25.4408 135.766 25.6126 135.984 25.7793C136.203 25.946 136.495 26.123 136.859 26.3105C137.234 26.4876 137.693 26.6855 138.234 26.9043C139.359 27.321 140.281 27.7689 141 28.248C141.729 28.7272 142.271 29.2897 142.625 29.9355C142.979 30.571 143.156 31.3574 143.156 32.2949C143.156 33.0449 143.01 33.7272 142.719 34.3418C142.438 34.9564 142.026 35.4876 141.484 35.9355C140.943 36.3835 140.292 36.7272 139.531 36.9668C138.781 37.2064 137.943 37.3262 137.016 37.3262C135.651 37.3262 134.5 37.0553 133.562 36.5137C132.625 35.972 131.917 35.2793 131.438 34.4355C130.958 33.5814 130.719 32.696 130.719 31.7793H134.875C134.896 32.3418 135 32.7845 135.188 33.1074C135.385 33.4199 135.651 33.6387 135.984 33.7637C136.318 33.8887 136.688 33.9512 137.094 33.9512C137.5 33.9512 137.833 33.8991 138.094 33.7949C138.365 33.6803 138.568 33.5085 138.703 33.2793C138.839 33.0397 138.906 32.7637 138.906 32.4512ZM166.578 33.2324V37.0137H156.688V33.2324H166.578ZM158.109 14.2637V37.0137H153.531V14.2637H158.109ZM165.25 23.4824V27.1543H156.688V23.4824H165.25ZM166.547 14.2637V18.0605H156.688V14.2637H166.547ZM176.531 32.4512C176.531 32.1595 176.432 31.8991 176.234 31.6699C176.036 31.4408 175.724 31.2064 175.297 30.9668C174.87 30.7168 174.302 30.4408 173.594 30.1387C172.823 29.8262 172.141 29.5033 171.547 29.1699C170.953 28.8366 170.448 28.4668 170.031 28.0605C169.625 27.6543 169.318 27.1908 169.109 26.6699C168.901 26.1491 168.797 25.5553 168.797 24.8887C168.797 24.1699 168.927 23.5085 169.188 22.9043C169.458 22.2897 169.844 21.7533 170.344 21.2949C170.844 20.8262 171.453 20.4616 172.172 20.2012C172.901 19.9303 173.719 19.7949 174.625 19.7949C175.896 19.7949 176.984 20.0189 177.891 20.4668C178.807 20.9043 179.51 21.5189 180 22.3105C180.49 23.1022 180.734 24.0241 180.734 25.0762H176.359C176.359 24.7012 176.302 24.3678 176.188 24.0762C176.073 23.7741 175.885 23.5397 175.625 23.373C175.375 23.2064 175.036 23.123 174.609 23.123C174.297 23.123 174.016 23.1908 173.766 23.3262C173.526 23.4616 173.333 23.6439 173.188 23.873C173.052 24.0918 172.984 24.3522 172.984 24.6543C172.984 24.8835 173.031 25.0866 173.125 25.2637C173.229 25.4408 173.391 25.6126 173.609 25.7793C173.828 25.946 174.12 26.123 174.484 26.3105C174.859 26.4876 175.318 26.6855 175.859 26.9043C176.984 27.321 177.906 27.7689 178.625 28.248C179.354 28.7272 179.896 29.2897 180.25 29.9355C180.604 30.571 180.781 31.3574 180.781 32.2949C180.781 33.0449 180.635 33.7272 180.344 34.3418C180.062 34.9564 179.651 35.4876 179.109 35.9355C178.568 36.3835 177.917 36.7272 177.156 36.9668C176.406 37.2064 175.568 37.3262 174.641 37.3262C173.276 37.3262 172.125 37.0553 171.188 36.5137C170.25 35.972 169.542 35.2793 169.062 34.4355C168.583 33.5814 168.344 32.696 168.344 31.7793H172.5C172.521 32.3418 172.625 32.7845 172.812 33.1074C173.01 33.4199 173.276 33.6387 173.609 33.7637C173.943 33.8887 174.312 33.9512 174.719 33.9512C175.125 33.9512 175.458 33.8991 175.719 33.7949C175.99 33.6803 176.193 33.5085 176.328 33.2793C176.464 33.0397 176.531 32.7637 176.531 32.4512ZM190.938 20.1074V23.4043H182.312V20.1074H190.938ZM184.297 15.9355H188.656V31.8574C188.656 32.3158 188.703 32.6751 188.797 32.9355C188.891 33.1855 189.031 33.3626 189.219 33.4668C189.417 33.5605 189.672 33.6074 189.984 33.6074C190.214 33.6074 190.422 33.597 190.609 33.5762C190.797 33.5449 190.938 33.5137 191.031 33.4824V36.9043C190.688 37.0397 190.323 37.1439 189.938 37.2168C189.562 37.2897 189.115 37.3262 188.594 37.3262C187.719 37.3262 186.958 37.1647 186.312 36.8418C185.677 36.5085 185.182 35.972 184.828 35.2324C184.474 34.4928 184.297 33.5241 184.297 32.3262V15.9355ZM200.828 33.123V25.3105C200.828 24.8001 200.766 24.3939 200.641 24.0918C200.526 23.7897 200.349 23.571 200.109 23.4355C199.88 23.2897 199.599 23.2168 199.266 23.2168C198.891 23.2168 198.578 23.2949 198.328 23.4512C198.078 23.6074 197.891 23.8314 197.766 24.123C197.651 24.4147 197.594 24.7637 197.594 25.1699H193.203C193.203 24.4408 193.344 23.7533 193.625 23.1074C193.906 22.4512 194.318 21.8783 194.859 21.3887C195.411 20.8887 196.068 20.498 196.828 20.2168C197.589 19.9355 198.443 19.7949 199.391 19.7949C200.516 19.7949 201.516 19.9876 202.391 20.373C203.266 20.748 203.958 21.347 204.469 22.1699C204.979 22.9928 205.234 24.0605 205.234 25.373V32.9043C205.234 33.8522 205.281 34.623 205.375 35.2168C205.479 35.8105 205.63 36.321 205.828 36.748V37.0137H201.422C201.224 36.5449 201.073 35.9616 200.969 35.2637C200.875 34.5553 200.828 33.8418 200.828 33.123ZM201.359 26.6855L201.375 29.3105H199.766C199.349 29.3105 198.984 29.3783 198.672 29.5137C198.37 29.6491 198.115 29.8418 197.906 30.0918C197.698 30.3314 197.542 30.6126 197.438 30.9355C197.344 31.2585 197.297 31.6022 197.297 31.9668C197.297 32.373 197.354 32.7168 197.469 32.998C197.583 33.2793 197.755 33.4928 197.984 33.6387C198.214 33.7845 198.484 33.8574 198.797 33.8574C199.276 33.8574 199.693 33.7585 200.047 33.5605C200.401 33.3626 200.661 33.123 200.828 32.8418C201.005 32.5605 201.062 32.3001 201 32.0605L202 33.7637C201.875 34.1491 201.703 34.5501 201.484 34.9668C201.276 35.3835 201.01 35.7689 200.688 36.123C200.365 36.4772 199.964 36.7689 199.484 36.998C199.016 37.2168 198.458 37.3262 197.812 37.3262C196.906 37.3262 196.078 37.1178 195.328 36.7012C194.578 36.2845 193.984 35.7012 193.547 34.9512C193.12 34.2012 192.906 33.3105 192.906 32.2793C192.906 31.4251 193.042 30.6543 193.312 29.9668C193.594 29.2689 194.01 28.6803 194.562 28.2012C195.115 27.7116 195.812 27.3366 196.656 27.0762C197.5 26.8158 198.49 26.6855 199.625 26.6855H201.359ZM216.656 33.2793V13.0137H221.047V37.0137L217.078 37.0293L216.656 33.2793ZM207.891 29.1543V28.0293C207.891 26.6543 208.005 25.4512 208.234 24.4199C208.474 23.3887 208.828 22.5293 209.297 21.8418C209.766 21.1543 210.339 20.6439 211.016 20.3105C211.703 19.9668 212.49 19.7949 213.375 19.7949C214.177 19.7949 214.88 19.998 215.484 20.4043C216.099 20.8001 216.62 21.3574 217.047 22.0762C217.474 22.7949 217.818 23.6439 218.078 24.623C218.339 25.6022 218.521 26.6751 218.625 27.8418V29.4668C218.5 30.571 218.307 31.6022 218.047 32.5605C217.797 33.5189 217.453 34.3522 217.016 35.0605C216.589 35.7689 216.073 36.3262 215.469 36.7324C214.865 37.1283 214.161 37.3262 213.359 37.3262C212.474 37.3262 211.688 37.1491 211 36.7949C210.323 36.4408 209.75 35.9199 209.281 35.2324C208.823 34.5345 208.474 33.6803 208.234 32.6699C208.005 31.6491 207.891 30.4772 207.891 29.1543ZM212.266 28.0293V29.1543C212.266 29.946 212.302 30.6283 212.375 31.2012C212.458 31.7637 212.589 32.2272 212.766 32.5918C212.953 32.946 213.198 33.2116 213.5 33.3887C213.802 33.5553 214.177 33.6387 214.625 33.6387C215.208 33.6387 215.682 33.4928 216.047 33.2012C216.411 32.8991 216.682 32.4876 216.859 31.9668C217.047 31.4355 217.151 30.8262 217.172 30.1387V27.1855C217.151 26.6126 217.083 26.097 216.969 25.6387C216.854 25.1803 216.693 24.7897 216.484 24.4668C216.276 24.1439 216.016 23.8939 215.703 23.7168C215.401 23.5397 215.047 23.4512 214.641 23.4512C214.203 23.4512 213.828 23.5397 213.516 23.7168C213.214 23.8939 212.974 24.1699 212.797 24.5449C212.62 24.9095 212.484 25.3835 212.391 25.9668C212.307 26.5397 212.266 27.2272 212.266 28.0293ZM232.516 32.9512V20.1074H236.906V37.0137H232.781L232.516 32.9512ZM233.016 29.4668L234.234 29.4355C234.234 30.571 234.125 31.623 233.906 32.5918C233.688 33.5501 233.359 34.3835 232.922 35.0918C232.495 35.8001 231.948 36.3522 231.281 36.748C230.625 37.1335 229.849 37.3262 228.953 37.3262C228.266 37.3262 227.63 37.2116 227.047 36.9824C226.474 36.7428 225.979 36.373 225.562 35.873C225.146 35.3626 224.818 34.7116 224.578 33.9199C224.349 33.1178 224.234 32.1595 224.234 31.0449V20.1074H228.625V31.0762C228.625 31.5345 228.661 31.9303 228.734 32.2637C228.818 32.5866 228.932 32.8522 229.078 33.0605C229.234 33.2689 229.411 33.4199 229.609 33.5137C229.807 33.597 230.031 33.6387 230.281 33.6387C230.969 33.6387 231.51 33.4616 231.906 33.1074C232.312 32.7428 232.599 32.248 232.766 31.623C232.932 30.9876 233.016 30.2689 233.016 29.4668ZM247.547 33.123V25.3105C247.547 24.8001 247.484 24.3939 247.359 24.0918C247.245 23.7897 247.068 23.571 246.828 23.4355C246.599 23.2897 246.318 23.2168 245.984 23.2168C245.609 23.2168 245.297 23.2949 245.047 23.4512C244.797 23.6074 244.609 23.8314 244.484 24.123C244.37 24.4147 244.312 24.7637 244.312 25.1699H239.922C239.922 24.4408 240.062 23.7533 240.344 23.1074C240.625 22.4512 241.036 21.8783 241.578 21.3887C242.13 20.8887 242.786 20.498 243.547 20.2168C244.307 19.9355 245.161 19.7949 246.109 19.7949C247.234 19.7949 248.234 19.9876 249.109 20.373C249.984 20.748 250.677 21.347 251.188 22.1699C251.698 22.9928 251.953 24.0605 251.953 25.373V32.9043C251.953 33.8522 252 34.623 252.094 35.2168C252.198 35.8105 252.349 36.321 252.547 36.748V37.0137H248.141C247.943 36.5449 247.792 35.9616 247.688 35.2637C247.594 34.5553 247.547 33.8418 247.547 33.123ZM248.078 26.6855L248.094 29.3105H246.484C246.068 29.3105 245.703 29.3783 245.391 29.5137C245.089 29.6491 244.833 29.8418 244.625 30.0918C244.417 30.3314 244.26 30.6126 244.156 30.9355C244.062 31.2585 244.016 31.6022 244.016 31.9668C244.016 32.373 244.073 32.7168 244.188 32.998C244.302 33.2793 244.474 33.4928 244.703 33.6387C244.932 33.7845 245.203 33.8574 245.516 33.8574C245.995 33.8574 246.411 33.7585 246.766 33.5605C247.12 33.3626 247.38 33.123 247.547 32.8418C247.724 32.5605 247.781 32.3001 247.719 32.0605L248.719 33.7637C248.594 34.1491 248.422 34.5501 248.203 34.9668C247.995 35.3835 247.729 35.7689 247.406 36.123C247.083 36.4772 246.682 36.7689 246.203 36.998C245.734 37.2168 245.177 37.3262 244.531 37.3262C243.625 37.3262 242.797 37.1178 242.047 36.7012C241.297 36.2845 240.703 35.7012 240.266 34.9512C239.839 34.2012 239.625 33.3105 239.625 32.2793C239.625 31.4251 239.76 30.6543 240.031 29.9668C240.312 29.2689 240.729 28.6803 241.281 28.2012C241.833 27.7116 242.531 27.3366 243.375 27.0762C244.219 26.8158 245.208 26.6855 246.344 26.6855H248.078ZM259.781 20.1074V37.0137H255.391V20.1074H259.781ZM255.188 15.7168C255.188 15.0397 255.401 14.4824 255.828 14.0449C256.266 13.6074 256.854 13.3887 257.594 13.3887C258.323 13.3887 258.901 13.6074 259.328 14.0449C259.755 14.4824 259.969 15.0397 259.969 15.7168C259.969 16.3939 259.755 16.9564 259.328 17.4043C258.901 17.8418 258.323 18.0605 257.594 18.0605C256.854 18.0605 256.266 17.8418 255.828 17.4043C255.401 16.9564 255.188 16.3939 255.188 15.7168ZM270.75 32.4512C270.75 32.1595 270.651 31.8991 270.453 31.6699C270.255 31.4408 269.943 31.2064 269.516 30.9668C269.089 30.7168 268.521 30.4408 267.812 30.1387C267.042 29.8262 266.359 29.5033 265.766 29.1699C265.172 28.8366 264.667 28.4668 264.25 28.0605C263.844 27.6543 263.536 27.1908 263.328 26.6699C263.12 26.1491 263.016 25.5553 263.016 24.8887C263.016 24.1699 263.146 23.5085 263.406 22.9043C263.677 22.2897 264.062 21.7533 264.562 21.2949C265.062 20.8262 265.672 20.4616 266.391 20.2012C267.12 19.9303 267.938 19.7949 268.844 19.7949C270.115 19.7949 271.203 20.0189 272.109 20.4668C273.026 20.9043 273.729 21.5189 274.219 22.3105C274.708 23.1022 274.953 24.0241 274.953 25.0762H270.578C270.578 24.7012 270.521 24.3678 270.406 24.0762C270.292 23.7741 270.104 23.5397 269.844 23.373C269.594 23.2064 269.255 23.123 268.828 23.123C268.516 23.123 268.234 23.1908 267.984 23.3262C267.745 23.4616 267.552 23.6439 267.406 23.873C267.271 24.0918 267.203 24.3522 267.203 24.6543C267.203 24.8835 267.25 25.0866 267.344 25.2637C267.448 25.4408 267.609 25.6126 267.828 25.7793C268.047 25.946 268.339 26.123 268.703 26.3105C269.078 26.4876 269.536 26.6855 270.078 26.9043C271.203 27.321 272.125 27.7689 272.844 28.248C273.573 28.7272 274.115 29.2897 274.469 29.9355C274.823 30.571 275 31.3574 275 32.2949C275 33.0449 274.854 33.7272 274.562 34.3418C274.281 34.9564 273.87 35.4876 273.328 35.9355C272.786 36.3835 272.135 36.7272 271.375 36.9668C270.625 37.2064 269.786 37.3262 268.859 37.3262C267.495 37.3262 266.344 37.0553 265.406 36.5137C264.469 35.972 263.76 35.2793 263.281 34.4355C262.802 33.5814 262.562 32.696 262.562 31.7793H266.719C266.74 32.3418 266.844 32.7845 267.031 33.1074C267.229 33.4199 267.495 33.6387 267.828 33.7637C268.161 33.8887 268.531 33.9512 268.938 33.9512C269.344 33.9512 269.677 33.8991 269.938 33.7949C270.208 33.6803 270.411 33.5085 270.547 33.2793C270.682 33.0397 270.75 32.7637 270.75 32.4512Z" fill="#0465B4"/>
</svg>
